# xmcd
#
# Track frame offsets:
# 150
# 16638
# 42120
# 59057
# 82692
# 103704
# 121378
# 154441
# 174741
# 193113
#
# Disc length: 2794 seconds
#
# Revision: 1
# Processed by: cddbd v1.5.2PL0 Copyright (c) Steve Scherf et al.
# Submitted via: CedeCatalogueitor 2.6.0.6 http://personales.ya.com/cdcatalogueitor
#
DISCID=7d0ae80a
DTITLE=Polar - Surrounded By Happiness
DYEAR=1900
DGENRE=
TTITLE0=Tell Me
TTITLE1=Martin Eden
TTITLE2=Stuart
TTITLE3=Tunnel
TTITLE4=A Way To Forget
TTITLE5=A Cup Of Coffee
TTITLE6=1988
TTITLE7=Pere I Laia
TTITLE8=When Morning Comes
TTITLE9=The Band
EXTD=
EXTT0=
EXTT1=
EXTT2=
EXTT3=
EXTT4=
EXTT5=
EXTT6=
EXTT7=
EXTT8=
EXTT9=
PLAYORDER=
